<svg xmlns="http://www.w3.org/2000/svg" viewBox="0 0 1447.32 1547.29"><defs><style>.cls-1{fill:#d32828;}.cls-1,.cls-2{fill-rule:evenodd;}.cls-2{fill:#fff;}</style></defs><title>createller 2</title><g id="Camada_2" data-name="Camada 2"><g id="Layer_1" data-name="Layer 1"><polygon class="cls-1" points="0 900.96 0 1031.74 362.14 1289.51 723.66 1547.29 1085.81 1289.51 1447.32 1031.74 1447.32 900.96 723.66 1416.52 0 900.96"/><polygon class="cls-2" points="0 0 0 319.39 0 835.57 362.14 1093.35 723.66 1351.13 1085.81 1093.35 1447.32 835.57 1447.32 619.29 1287.63 619.29 1287.63 645.7 1287.63 753.21 723.66 1154.97 159.7 753.21 159.7 159.7 1287.63 159.7 1287.63 274.12 1287.63 292.99 1447.32 292.99 1447.32 274.12 1447.32 159.7 1447.32 0 1369.36 0 1287.63 0 159.7 0 101.22 0 0 0"/><path class="cls-1" d="M723.66,319.39H319.39V670.85L723.66,958.8l404.27-287.95V319.39Z"/></g></g></svg>